<svg xmlns="http://www.w3.org/2000/svg" width="64" height="64" viewBox="0 0 64 64"><defs><linearGradient id="gradient" x1="0%" x2="100%" y1="0%" y2="100%"><stop offset="0%" stop-color="#6366f1"/><stop offset="100%" stop-color="#8b5cf6"/></linearGradient></defs><rect width="56" height="56" x="4" y="4" fill="url(#gradient)" rx="12" ry="12" transform="rotate(12, 32, 32)"/><path fill="none" stroke="#fff" stroke-linecap="round" stroke-linejoin="round" stroke-width="4" d="M20 40l8-8a4 4 0 014 0L44 40m-4-4l3-3a4 4 0 014 0L52 38m-12-12h.02M22 44h20a4 4 0 004-4V24a4 4 0 00-4-4H22a4 4 0 00-4 4v16a4 4 0 004 4z"/></svg>